<?xml version="1.0" encoding="UTF-8" standalone="no"?>
<!-- Created with Inkscape (http://www.inkscape.org/) -->

<svg
   width="158.22084mm"
   height="107.42083mm"
   viewBox="0 0 158.22084 107.42083"
   version="1.1"
   id="svg5"
   inkscape:version="1.1.2 (0a00cf5339, 2022-02-04)"
   sodipodi:docname="paper.svg"
   xmlns:inkscape="http://www.inkscape.org/namespaces/inkscape"
   xmlns:sodipodi="http://sodipodi.sourceforge.net/DTD/sodipodi-0.dtd"
   xmlns="http://www.w3.org/2000/svg"
   xmlns:svg="http://www.w3.org/2000/svg">
  <sodipodi:namedview
     id="namedview7"
     pagecolor="#ffffff"
     bordercolor="#666666"
     borderopacity="1.0"
     inkscape:pageshadow="2"
     inkscape:pageopacity="0.0"
     inkscape:pagecheckerboard="0"
     inkscape:document-units="px"
     showgrid="false"
     inkscape:snap-global="false"
     fit-margin-top="0"
     fit-margin-left="0"
     fit-margin-right="0"
     fit-margin-bottom="0"
     inkscape:zoom="0.67361689"
     inkscape:cx="315.46121"
     inkscape:cy="213.77136"
     inkscape:window-width="1318"
     inkscape:window-height="701"
     inkscape:window-x="24"
     inkscape:window-y="24"
     inkscape:window-maximized="1"
     inkscape:current-layer="layer1" />
  <defs
     id="defs2" />
  <g
     inkscape:label="Layer 1"
     inkscape:groupmode="layer"
     id="layer1"
     transform="translate(-46.025752,-96.650279)">
    <path
       id="path350"
       style="fill:#ffffff;stroke-width:2.00809"
       sodipodi:type="inkscape:offset"
       inkscape:radius="0.74173969"
       inkscape:original="M 335.34961 217.87695 L 335.34961 228.92188 L 335.34961 239.9668 L 311.25391 239.9668 L 287.15625 239.9668 L 287.15625 249.60547 C 287.15625 254.90682 288.24107 260.32896 289.56641 261.6543 C 291.32037 263.40826 306.57668 264.0625 345.62891 264.0625 C 375.13776 264.0625 400.71003 263.51414 402.45703 262.84375 C 405.08446 261.83551 405.63281 257.84583 405.63281 239.75195 L 405.63281 217.87695 L 370.49219 217.87695 L 335.34961 217.87695 z "
       d="m 335.34961,217.13477 a 0.74181386,0.74181386 0 0 0 -0.74219,0.74218 v 11.04493 10.30273 h -23.35351 -24.09766 a 0.74181386,0.74181386 0 0 0 -0.74219,0.74219 v 9.63867 c 0,2.70127 0.27447,5.41969 0.72266,7.66015 0.44819,2.24047 0.95555,3.96532 1.9043,4.91407 0.40118,0.40118 0.91927,0.59395 1.63476,0.79492 0.71549,0.20097 1.63453,0.37446 2.79883,0.53125 2.3286,0.31357 5.63449,0.56005 10.10351,0.75195 8.93806,0.3838 22.52053,0.54688 42.05079,0.54688 14.75902,0 28.5322,-0.13833 38.83984,-0.35938 5.15382,-0.11052 9.44144,-0.24052 12.55664,-0.38672 1.5576,-0.0731 2.82108,-0.14989 3.76172,-0.23047 0.47032,-0.0403 0.85994,-0.0811 1.17187,-0.125 0.31194,-0.0439 0.52111,-0.0729 0.76368,-0.16601 0.80156,-0.30759 1.50835,-0.91057 1.99609,-1.83594 0.48774,-0.92536 0.80804,-2.15776 1.04687,-3.89453 0.47767,-3.47354 0.60938,-9.00025 0.60938,-18.05469 v -21.875 a 0.74181386,0.74181386 0 0 0 -0.74219,-0.74218 h -35.14062 z"
       transform="matrix(0.26458334,0,0,0.26458334,41.843419,87.33474)" />
    <path
       id="path428"
       style="fill:#ffffff;stroke-width:2.00809"
       sodipodi:type="inkscape:offset"
       inkscape:radius="2.6030786"
       inkscape:original="M 361.08594 287.56055 C 350.34896 287.55833 338.18138 287.65185 327.17578 287.83984 L 287.15625 288.52344 L 287.15625 311.43555 L 287.15625 334.3457 L 346.39453 334.3457 L 405.63281 334.3457 L 405.63281 311.44727 L 405.63281 288.54883 L 386.41602 287.85156 C 381.13102 287.66023 371.82292 287.56276 361.08594 287.56055 z "
       d="m 361.08594,284.95703 c -10.7525,-0.002 -22.93146,0.091 -33.95508,0.2793 l -40.01953,0.68359 a 2.6033389,2.6033389 0 0 0 -2.5586,2.60352 v 22.91211 22.91015 a 2.6033389,2.6033389 0 0 0 2.60352,2.60352 h 59.23828 59.23828 a 2.6033389,2.6033389 0 0 0 2.60352,-2.60352 v -22.89843 -22.89844 a 2.6033389,2.6033389 0 0 0 -2.50977,-2.60156 L 386.50977,285.25 c -5.36349,-0.19417 -14.67141,-0.29076 -25.42383,-0.29297 z"
       transform="matrix(0.26458334,0,0,0.26458334,41.843419,87.33474)" />
    <path
       style="fill:#000000;stroke:none;stroke-width:0.264583"
       d="m 102.91117,96.650279 v 6.350001 H 90.211171 v 6.35 h -8.466667 c -1.015207,0 -2.662767,-0.3107 -3.589338,0.15965 -1.504421,0.76348 -0.243152,4.0668 -0.651404,5.35638 -0.475456,1.50204 -4.897173,0.85064 -6.078009,0.56939 v 6.35 H 52.375752 v 6.35 h -6.35 v 63.5 h 6.35 v 6.35 h 19.050001 v 6.08541 h 63.235417 v -6.08541 h 23.01875 c 1.84521,0 6.84557,0.88556 8.30713,-0.272 1.07712,-0.85328 0.42412,-4.79213 0.42412,-6.078 h 6.08542 v -12.7 h 12.7 v -6.35 h 6.35 v -12.7 h 6.35 v -6.35 h 6.35 v -12.7 h -6.35 v -6.35 h -6.35 v -12.7 h -6.35 v -6.08542 h -18.78542 v -12.7 h -6.35 v -6.350001 h -57.15 m 56.88542,6.350001 v 12.7 h -25.13542 v 6.08542 h 50.53542 v 12.7 h -50.53542 v 6.35 h 63.23542 v 12.7 h -63.23542 v 6.35 h 50.53542 v 12.7 h -50.53542 v 6.35 h 31.48542 v 12.43541 h -31.48542 v 6.35 H 71.425753 V 140.04195 126.5482 l 0.424127,-4.49051 5.925874,-0.27199 v -6.08542 h 12.435417 v -6.35 h 12.699999 v -6.35 z"
       id="path1313" />
    <path
       id="path1468"
       style="fill:#ffffff;stroke-width:1.48452"
       sodipodi:type="inkscape:offset"
       inkscape:radius="3.956449"
       inkscape:original="M 290.9668 74.96875 L 290.9668 86.84375 L 290.9668 98.720703 L 267.21484 98.720703 L 243.46094 98.720703 L 243.46094 110.59766 L 243.46094 122.47266 L 219.70898 122.47266 L 195.95703 122.47266 L 195.95703 134.34961 L 195.95703 146.22461 L 184.99609 146.22461 C 174.88426 146.22461 173.96642 146.48494 173.14062 149.56641 C 172.6483 151.40351 172.23581 215.53434 172.22461 292.08008 L 172.20508 431.25391 L 290.9668 431.25391 L 409.72852 431.25391 L 409.72852 419.37695 L 409.72852 407.50195 L 469.10938 407.50195 L 528.49023 407.50195 L 528.49023 384.49219 L 528.49023 361.48047 L 469.10938 361.48047 L 409.72852 361.48047 L 409.72852 348.86328 L 409.72852 336.24414 L 504.73828 336.24414 L 599.74805 336.24414 L 599.74805 313.23438 L 599.74805 290.22461 L 504.73828 290.22461 L 409.72852 290.22461 L 409.72852 277.60547 L 409.72852 264.98828 L 529.23242 264.98828 L 648.73633 264.98828 L 648.73633 241.23438 L 648.73633 217.48242 L 529.23242 217.48242 L 409.72852 217.48242 L 409.72852 204.86328 L 409.72852 192.24609 L 504.73828 192.24609 L 599.74805 192.24609 L 599.74805 169.23633 L 599.74805 146.22461 L 504.73828 146.22461 L 409.72852 146.22461 L 409.72852 133.60742 L 409.72852 120.98828 L 457.23242 120.98828 L 504.73828 120.98828 L 504.73828 97.978516 L 504.73828 74.96875 L 397.85156 74.96875 L 290.9668 74.96875 z "
       d="m 290.9668,71.011719 a 3.9568447,3.9568447 0 0 0 -3.95703,3.957031 v 11.875 7.919922 h -19.79493 -23.7539 a 3.9568447,3.9568447 0 0 0 -3.95703,3.957031 v 11.876957 7.91796 H 219.70898 195.95703 A 3.9568447,3.9568447 0 0 0 192,122.47266 v 11.87695 7.91797 h -7.00391 c -5.08986,0 -7.83829,-0.0822 -10.48437,0.66406 -1.32304,0.3731 -2.77932,1.19367 -3.70117,2.36524 -0.92186,1.17156 -1.24191,2.31217 -1.49219,3.24609 -0.19714,0.73564 -0.14428,0.78552 -0.16602,1.03906 -0.0217,0.25354 -0.0383,0.52389 -0.0547,0.8457 -0.0328,0.64364 -0.0621,1.48283 -0.0918,2.53907 -0.0594,2.11246 -0.11574,5.07727 -0.16992,8.82031 -0.10836,7.48609 -0.20795,18.07272 -0.29102,30.99414 -0.16614,25.84283 -0.27174,61.01901 -0.27734,99.29883 l -0.0195,139.17383 a 3.9568447,3.9568447 0 0 0 3.95703,3.95703 H 290.9668 409.72852 a 3.9568447,3.9568447 0 0 0 3.95703,-3.95703 v -11.87696 -7.91797 h 55.42383 59.38085 a 3.9568447,3.9568447 0 0 0 3.95704,-3.95703 v -23.00976 -23.01172 a 3.9568447,3.9568447 0 0 0 -3.95704,-3.95703 h -59.38085 -55.42383 v -8.66016 -8.66211 h 91.05273 95.00977 a 3.9568447,3.9568447 0 0 0 3.95703,-3.95703 v -23.00976 -23.00977 a 3.9568447,3.9568447 0 0 0 -3.95703,-3.95703 h -95.00977 -91.05273 v -8.66211 -8.66016 h 115.54687 119.50391 a 3.9568447,3.9568447 0 0 0 3.95703,-3.95703 v -23.7539 -23.75196 a 3.9568447,3.9568447 0 0 0 -3.95703,-3.95703 H 529.23242 413.68555 v -8.66211 -8.66016 h 91.05273 95.00977 a 3.9568447,3.9568447 0 0 0 3.95703,-3.95703 v -23.00976 -23.01172 a 3.9568447,3.9568447 0 0 0 -3.95703,-3.95703 h -95.00977 -91.05273 v -8.66016 -8.66211 h 43.54687 47.50586 a 3.9568447,3.9568447 0 0 0 3.95703,-3.95703 V 97.978516 74.96875 a 3.9568447,3.9568447 0 0 0 -3.95703,-3.957031 H 397.85156 Z"
       transform="matrix(0.26458333,0,0,0.26458333,26.182001,83.421112)" />
  </g>
</svg>
