<?xml version="1.0" encoding="UTF-8" standalone="no"?>
<svg
   width="32"
   height="32"
   viewBox="-32 0 32 32"
   version="1.1"
   id="svg59"
   sodipodi:docname="paper-btn.svg"
   inkscape:version="1.1.2 (0a00cf5339, 2022-02-04)"
   xmlns:inkscape="http://www.inkscape.org/namespaces/inkscape"
   xmlns:sodipodi="http://sodipodi.sourceforge.net/DTD/sodipodi-0.dtd"
   xmlns="http://www.w3.org/2000/svg"
   xmlns:svg="http://www.w3.org/2000/svg">
  <defs
     id="defs63" />
  <sodipodi:namedview
     id="namedview61"
     pagecolor="#ffffff"
     bordercolor="#666666"
     borderopacity="1.0"
     inkscape:pageshadow="2"
     inkscape:pageopacity="0.0"
     inkscape:pagecheckerboard="0"
     showgrid="false"
     width="511px"
     inkscape:zoom="9.2578727"
     inkscape:cx="17.012548"
     inkscape:cy="17.282588"
     inkscape:window-width="1318"
     inkscape:window-height="701"
     inkscape:window-x="24"
     inkscape:window-y="24"
     inkscape:window-maximized="1"
     inkscape:current-layer="svg59" />
  <path
     d="M -8.3557312,8.3961653 V 7.8331195 c 0,-2.2684108 -2.1075848,-3.988964 -4.3191448,-3.409274 -1.333053,-2.5746662 -4.893947,-2.4680386 -6.136652,0.038854 -2.147116,-0.549314 -4.286169,1.0885376 -4.286169,3.3799905 v 6.560458 c -1.037825,-0.386305 -2.252599,-0.263604 -3.229152,0.461411 -1.526855,1.133685 -1.861769,3.294168 -0.756795,4.845209 l 6.240002,8.759847 a 1.6644306,1.6644306 0 0 0 1.355575,0.698645 h 11.5936435 c 0.7752081,0 1.4477947,-0.535166 1.6218835,-1.29061 l 1.5699744,-6.811578 a 10.591864,10.591864 0 0 0 0.2702103,-2.375247 v -6.843099 c 0,-2.1127863 -1.8476746,-3.7445525 -3.9233759,-3.4515607 z m 1.4265733,10.2946087 c 0,0.610169 -0.069387,1.220703 -0.2062329,1.81454 l -1.4212682,6.166247 h -10.502557 l -5.991742,-8.410419 c -0.751023,-1.054313 0.781398,-2.224928 1.528883,-1.175764 l 1.411021,1.98062 c 0.467861,0.656723 1.510003,0.327009 1.510003,-0.482841 V 7.84269 c 0,-1.3338851 1.902184,-1.2904538 1.902184,0.035941 v 7.974132 c 0,0.459643 0.372572,0.832215 0.832215,0.832215 h 0.356605 c 0.459643,0 0.832215,-0.372572 0.832215,-0.832215 V 6.0222191 c 0,-1.3348214 1.902184,-1.2904539 1.902184,0.035941 v 9.7946029 c 0,0.459643 0.372572,0.832215 0.832216,0.832215 h 0.356604 c 0.459642,0 0.832215,-0.372572 0.832215,-0.832215 V 7.7971783 c 0,-1.3352895 1.902132,-1.2904539 1.902132,0.035941 v 8.0196437 c 0,0.459643 0.372572,0.832215 0.832215,0.832215 h 0.356657 c 0.459643,0 0.832215,-0.372572 0.832215,-0.832215 v -3.969095 c 0,-1.364938 1.902132,-1.333626 1.902132,-0.03594 v 6.843047 z"
     id="path57"
     style="stroke-width:0.0520135" />
</svg>
