<?xml version="1.0" encoding="UTF-8" standalone="no"?>
<!-- Created with Inkscape (http://www.inkscape.org/) -->

<svg
   width="4.4847465in"
   height="3.7363968in"
   viewBox="0 0 113.91256 94.904482"
   version="1.1"
   id="svg5"
   sodipodi:docname="rock.svg"
   inkscape:version="1.1.2 (0a00cf5339, 2022-02-04)"
   xmlns:inkscape="http://www.inkscape.org/namespaces/inkscape"
   xmlns:sodipodi="http://sodipodi.sourceforge.net/DTD/sodipodi-0.dtd"
   xmlns="http://www.w3.org/2000/svg"
   xmlns:svg="http://www.w3.org/2000/svg">
  <sodipodi:namedview
     id="namedview7"
     pagecolor="#ffffff"
     bordercolor="#666666"
     borderopacity="1.0"
     inkscape:pageshadow="2"
     inkscape:pageopacity="0.0"
     inkscape:pagecheckerboard="0"
     inkscape:document-units="mm"
     showgrid="false"
     inkscape:snap-global="false"
     fit-margin-top="0"
     fit-margin-left="0"
     fit-margin-right="0"
     fit-margin-bottom="0"
     units="in"
     inkscape:zoom="0.38985426"
     inkscape:cx="264.2013"
     inkscape:cy="246.24587"
     inkscape:window-width="1318"
     inkscape:window-height="701"
     inkscape:window-x="24"
     inkscape:window-y="24"
     inkscape:window-maximized="1"
     inkscape:current-layer="layer1" />
  <defs
     id="defs2" />
  <g
     inkscape:label="Layer 1"
     inkscape:groupmode="layer"
     id="layer1"
     transform="translate(-126.6731,-158.78843)">
    <path
       style="fill:#000000;stroke-width:0.264583"
       d="m 170.99081,250.51808 v -3.175 h -9.525 -9.525 v -3.175 -3.175 h -9.525 -9.525 v -3.03431 -3.03431 l -3.10886,-0.0745 -3.10885,-0.0746 v -31.61771 -31.61771 l 3.10053,-0.0745 3.10053,-0.0745 0.0745,-3.10053 0.0745,-3.10053 9.45048,-0.0695 9.45049,-0.0695 0.0745,-3.10553 0.0745,-3.10552 31.55156,-0.0257 31.55156,-0.0257 v 3.13452 3.13452 h -31.61771 -31.6177 v 37.96771 37.96771 h 9.525 9.525 v 3.175 3.175 h 12.69999 12.7 v -6.21771 -6.21771 l 3.10886,-2.1e-4 3.10885,-2.2e-4 -0.0755,6.21793 -0.0755,6.21792 h 15.88911 15.88911 l -0.0709,-6.28385 -0.0709,-6.28386 -15.6601,-0.0682 -15.66009,-0.0682 -0.0826,-2.93144 c -0.0454,-1.61229 -0.033,-2.98057 0.0276,-3.04062 0.0606,-0.0601 7.17461,-0.10918 15.80885,-0.10918 h 15.69861 v -6.34665 -6.34666 l -9.45885,-0.0695 -9.45886,-0.0695 v -25.26771 -25.26771 l 9.45886,-0.0695 9.45885,-0.0695 v 3.17834 3.17834 h 3.175 3.175 v 6.35 6.35 h -3.175 -3.175 v 3.175 3.175 h 3.175 3.175 v 9.525 9.525 h -3.175 -3.175 v 3.175 3.175 h 3.175 3.175 v 6.35 6.35 h -3.1834 -3.18339 l 0.0745,3.10886 0.0745,3.10885 h 3.04271 3.04271 l 0.0709,6.28386 0.0709,6.28385 h -3.17979 -3.17979 v 3.175 3.175 h -31.61771 -31.6177 z m 63.23541,-50.53542 v -9.525 h -6.35 -6.35 v 9.525 9.525 h 6.35 6.35 z m 0,-22.22979 v -6.35479 l -6.28385,0.0709 -6.28386,0.0709 -0.0709,6.28386 -0.0709,6.28385 h 6.35479 6.35479 z m -37.83542,44.4775 v -6.37271 h -3.175 -3.175 v -19.0584 -19.05839 l 3.10886,0.0745 c 2.53991,0.0609 3.11358,0.14717 3.1347,0.47142 0.0142,0.21828 0.044,8.76101 0.0662,18.98385 l 0.0403,18.58698 h 9.39271 9.39271 v 3.175 3.175 h -6.35 -6.35 l -5.3e-4,3.10886 -5.3e-4,3.10885 -3.04225,0.0889 -3.04226,0.0889 v -6.37272 z"
       id="path1849" />
    <path
       style="fill:#ffffff;stroke-width:0.906886"
       d="M 525.08703,431.67776 V 419.4348 h -35.822 -35.822 V 276.60025 133.76569 h 119.25551 119.25552 v 95.67648 95.67648 H 656.5855 621.21695 v -71.13703 c 0,-55.89881 -0.24262,-71.28698 -1.13264,-71.83704 -0.62295,-0.38501 -6.13228,-0.86646 -12.24296,-1.06989 l -11.11032,-0.36988 v 72.66036 72.66037 h 11.78951 11.78952 v 24.05549 24.0555 l 12.01624,-0.59369 12.01624,-0.5937 0.22983,11.90676 0.22982,11.90675 h -12.24606 -12.24607 v 23.57904 23.57903 h -47.61152 -47.61151 z"
       id="path2940"
       transform="matrix(0.26458333,0,0,0.26458333,32.10257,129.79192)" />
    <path
       id="path2979"
       style="fill:#ffffff;stroke-width:0.906886"
       sodipodi:type="inkscape:offset"
       inkscape:radius="1.0563904"
       inkscape:original="M 644.79688 396.76172 L 644.7832 418.30078 C 644.77639 430.14698 644.52537 440.75859 644.22461 441.88086 L 643.67773 443.91992 L 703.63867 443.91992 L 763.59766 443.91992 L 763.59766 431.36719 C 763.59766 424.46248 763.33191 413.85086 763.00586 407.78711 L 762.41211 396.76172 L 703.60352 396.76172 L 644.79688 396.76172 z "
       d="m 644.79688,395.70508 a 1.056496,1.056496 0 0 0 -1.05665,1.05664 l -0.0137,21.53906 c -0.003,5.91582 -0.067,11.52442 -0.16797,15.78711 -0.0505,2.13134 -0.11059,3.92552 -0.17578,5.24805 -0.0326,0.66126 -0.0676,1.20523 -0.10156,1.60547 -0.0339,0.40023 -0.0877,0.70902 -0.0762,0.66601 l -0.54688,2.03906 a 1.056496,1.056496 0 0 0 1.01953,1.33008 h 59.96094 59.95899 a 1.056496,1.056496 0 0 0 1.05664,-1.05664 v -12.55273 c 0,-6.93182 -0.26581,-17.53772 -0.59375,-23.63672 l -0.59375,-11.02539 a 1.056496,1.056496 0 0 0 -1.05469,-1 h -58.80859 z"
       transform="matrix(0.26458333,0,0,0.26458333,32.10257,129.79192)" />
    <path
       id="path3018"
       style="fill:#ffffff;stroke-width:0.906886"
       sodipodi:type="inkscape:offset"
       inkscape:radius="1.0019531"
       inkscape:original="M 691.95312 325.11914 L 691.95312 337.36133 L 691.95312 349.60547 L 668.375 349.60547 L 644.79688 349.60547 L 644.79688 361.39453 L 644.79688 373.18359 L 704.19727 373.18359 L 763.59766 373.18359 L 763.59766 349.74805 L 763.59766 326.3125 L 746.59375 325.71875 C 737.24148 325.3919 721.12131 325.12209 710.77148 325.12109 L 691.95312 325.11914 z "
       d="m 691.95312,324.11719 a 1.0020533,1.0020533 0 0 0 -1.00195,1.00195 v 12.24219 11.24219 H 668.375 644.79688 a 1.0020533,1.0020533 0 0 0 -1.00196,1.00195 v 11.78906 11.78906 a 1.0020533,1.0020533 0 0 0 1.00196,1.00196 h 59.40039 59.40039 a 1.0020533,1.0020533 0 0 0 1.00195,-1.00196 V 349.74805 326.3125 a 1.0020533,1.0020533 0 0 0 -0.9668,-1.00195 l -17.0039,-0.59375 c -9.3732,-0.32758 -25.49028,-0.59666 -35.85743,-0.59766 z"
       transform="matrix(0.26458333,0,0,0.26458333,32.10257,129.79192)" />
    <path
       style="fill:#ffffff;stroke-width:0.906886"
       d="m 716.43998,265.26417 v -35.36855 h 23.57904 23.57904 v 35.36855 35.36856 h -23.57904 -23.57904 z"
       id="path3057"
       transform="matrix(0.26458333,0,0,0.26458333,32.10257,129.79192)" />
    <path
       style="fill:#ffffff;stroke-width:0.906886"
       d="m 716.43998,181.37721 v -23.12559 l 16.09723,-0.005 c 8.85348,-0.003 19.46404,-0.26753 23.57904,-0.58786 l 7.48181,-0.58242 v 23.71345 23.71346 h -23.57904 -23.57904 z"
       id="path3096"
       transform="matrix(0.26458333,0,0,0.26458333,32.10257,129.79192)" />
    <path
       id="path3879"
       style="fill:#ffffff;stroke-width:0.906886"
       sodipodi:type="inkscape:offset"
       inkscape:radius="1.0523837"
       inkscape:original="M 453.44336 133.76562 L 453.44336 276.59961 L 453.44336 419.43555 L 489.26562 419.43555 L 525.08789 419.43555 L 525.08789 431.67773 L 525.08789 443.91992 L 572.69922 443.91992 L 620.31055 443.91992 L 620.31055 420.3418 L 620.31055 396.76172 L 632.58008 396.76172 L 644.84766 396.76172 L 644.5957 384.85547 L 644.3418 372.94922 L 632.32617 373.54297 L 620.31055 374.13672 L 620.31055 350.08008 L 620.31055 326.02539 L 608.52148 326.02539 L 596.73047 326.02539 L 596.73047 253.36523 L 596.73047 180.70508 L 607.8418 181.07422 C 613.95248 181.27765 619.46103 181.75952 620.08398 182.14453 C 620.974 182.69459 621.2168 198.08361 621.2168 253.98242 L 621.2168 325.11914 L 656.58594 325.11914 L 691.95312 325.11914 L 691.95312 229.44141 L 691.95312 133.76562 L 572.69922 133.76562 L 453.44336 133.76562 z "
       d="m 453.44336,132.71289 a 1.0524889,1.0524889 0 0 0 -1.05274,1.05273 v 142.83399 142.83594 a 1.0524889,1.0524889 0 0 0 1.05274,1.05273 h 35.82226 34.76954 v 11.18945 12.24219 a 1.0524889,1.0524889 0 0 0 1.05273,1.05274 h 47.61133 47.61133 a 1.0524889,1.0524889 0 0 0 1.05273,-1.05274 V 420.3418 397.81445 h 11.2168 12.26758 a 1.0524889,1.0524889 0 0 0 1.05273,-1.07422 l -0.25195,-11.90625 -0.25391,-11.90625 a 1.0524889,1.0524889 0 0 0 -1.10547,-1.02929 l -12.01562,0.59375 -10.91016,0.53906 v -22.95117 -23.9082 h 35.22266 35.36718 a 1.0524889,1.0524889 0 0 0 1.05274,-1.05274 v -95.67773 -95.67579 a 1.0524889,1.0524889 0 0 0 -1.05274,-1.05273 h -119.2539 z m 144.33984,49.08203 10.02344,0.33203 c 3.03823,0.10115 5.93005,0.27113 8.12305,0.46289 1.09649,0.0959 2.01979,0.19738 2.68554,0.29493 0.28964,0.0424 0.50368,0.084 0.67969,0.12109 0.0188,0.0863 0.0342,0.12375 0.0547,0.25391 0.082,0.5202 0.16341,1.36511 0.23633,2.54492 0.14583,2.35961 0.25984,6.07493 0.3457,11.51953 0.17173,10.88919 0.23242,28.71032 0.23242,56.6582 v 70.99024 H 608.52148 597.7832 v -71.60743 z"
       transform="matrix(0.26458333,0,0,0.26458333,32.10257,129.79192)" />
    <path
       id="path4514"
       style="fill:#ffffff;stroke-width:0.906886"
       sodipodi:type="inkscape:offset"
       inkscape:radius="1.2729328"
       inkscape:original="M 716.43945 229.89648 L 716.43945 265.26367 L 716.43945 300.63281 L 740.01953 300.63281 L 763.59766 300.63281 L 763.59766 265.26367 L 763.59766 229.89648 L 740.01953 229.89648 L 716.43945 229.89648 z "
       d="m 716.43945,228.62305 a 1.2730601,1.2730601 0 0 0 -1.27343,1.27343 v 35.36719 35.36914 a 1.2730601,1.2730601 0 0 0 1.27343,1.27344 h 23.58008 23.57813 a 1.2730601,1.2730601 0 0 0 1.27343,-1.27344 v -35.36914 -35.36719 a 1.2730601,1.2730601 0 0 0 -1.27343,-1.27343 h -23.57813 z"
       transform="matrix(0.26458333,0,0,0.26458333,32.10257,129.79192)" />
    <path
       id="path4590"
       style="fill:#ffffff;stroke-width:0.906886"
       sodipodi:type="inkscape:offset"
       inkscape:radius="1.1044408"
       inkscape:original="M 763.59766 157.07617 L 756.11719 157.6582 C 752.00219 157.97853 741.39059 158.24309 732.53711 158.24609 L 716.43945 158.25195 L 716.43945 181.37695 L 716.43945 204.50391 L 740.01953 204.50391 L 763.59766 204.50391 L 763.59766 180.78906 L 763.59766 157.07617 z "
       d="m 763.51172,155.97461 -7.48047,0.58203 c -4.01544,0.31258 -14.66236,0.58295 -23.49414,0.58594 l -16.09766,0.006 a 1.1045513,1.1045513 0 0 0 -1.10351,1.10351 v 23.125 23.12696 a 1.1045513,1.1045513 0 0 0 1.10351,1.10351 h 23.58008 23.57813 a 1.1045513,1.1045513 0 0 0 1.10351,-1.10351 v -23.71485 -23.71289 a 1.1045513,1.1045513 0 0 0 -1.18945,-1.10156 z"
       transform="matrix(0.26458333,0,0,0.26458333,32.10257,129.79192)" />
  </g>
</svg>
