<?xml version="1.0" encoding="UTF-8" standalone="no"?>
<!-- Created with Inkscape (http://www.inkscape.org/) -->

<svg
   width="158.22083mm"
   height="94.98542mm"
   viewBox="0 0 158.22082 94.98542"
   version="1.1"
   id="svg5"
   inkscape:version="1.1.2 (0a00cf5339, 2022-02-04)"
   sodipodi:docname="scissors.svg"
   xmlns:inkscape="http://www.inkscape.org/namespaces/inkscape"
   xmlns:sodipodi="http://sodipodi.sourceforge.net/DTD/sodipodi-0.dtd"
   xmlns="http://www.w3.org/2000/svg"
   xmlns:svg="http://www.w3.org/2000/svg">
  <sodipodi:namedview
     id="namedview7"
     pagecolor="#ffffff"
     bordercolor="#666666"
     borderopacity="1.0"
     inkscape:pageshadow="2"
     inkscape:pageopacity="0.0"
     inkscape:pagecheckerboard="0"
     inkscape:document-units="px"
     showgrid="false"
     inkscape:snap-global="false"
     fit-margin-top="0"
     fit-margin-left="0"
     fit-margin-right="0"
     fit-margin-bottom="0"
     inkscape:zoom="1.1029316"
     inkscape:cx="257.04223"
     inkscape:cy="121.49439"
     inkscape:window-width="1318"
     inkscape:window-height="701"
     inkscape:window-x="24"
     inkscape:window-y="24"
     inkscape:window-maximized="1"
     inkscape:current-layer="layer1" />
  <defs
     id="defs2" />
  <g
     inkscape:label="Layer 1"
     inkscape:groupmode="layer"
     id="layer1"
     transform="translate(-41.843419,-87.33474)">
    <path
       style="fill:#000000;stroke:none;stroke-width:0.264583"
       d="m 187.09967,87.33474 c -4.69979,1.389327 -11.23077,0.264584 -16.13958,0.264584 h -34.13125 v 6.085416 h -6.35 V 87.599324 H 67.243419 v 6.085416 h -19.05 v 6.35 l -5.925873,0.27199 -0.424127,3.96134 v 11.64167 47.625 h 6.35 v 6.35 h 19.05 v 6.08542 h 18.785417 v 6.35 h 63.500004 v -6.35 h 6.35 v -9.26042 l -0.42413,-3.16759 -5.92587,-0.27199 v -6.08542 l 5.92587,-0.27199 0.42413,-3.16759 v -9.26042 h 37.83541 v -6.35 h 6.35 v -12.7 h -6.35 v -6.35 h -44.18541 v -6.35 h 37.83541 c 0,-1.40282 -0.58843,-4.52729 0.27173,-5.68325 0.99404,-1.33562 4.70508,-0.51065 6.07827,-0.40217 V 93.68474 h -6.35 l -0.26458,-6.35 m -56.62083,57.15 h 19.05 v 9.26042 c 0,0.8337 0.32173,2.57677 -0.42413,3.16759 -1.27741,1.0115 -5.38771,0.27199 -6.98421,0.27199 H 124.658 c -1.49675,0 -5.25198,0.68077 -6.45504,-0.27199 -1.07712,-0.85328 -0.42412,-4.79213 -0.42412,-6.07801 h 12.7 v -6.35 h -19.05 v 9.26042 l 0.6133,3.16759 5.7367,0.27199 v 6.08542 l -5.7367,0.27199 -0.6133,3.16759 v 9.26042 H 86.293419 c 0,-1.40494 0.62865,-4.87283 -0.424127,-5.92588 -0.928423,-0.92815 -3.653102,-0.42412 -4.86754,-0.42412 H 67.243419 V 113.79307 99.505574 l 0.271992,-5.396707 3.432175,-0.424127 h 10.054166 37.041668 8.99583 l 3.16759,0.424127 0.272,3.544623 v 9.525 37.30625 m 56.88541,-50.8 v 12.7 h -37.83541 v 6.35 h -6.35 v 6.35 h 6.35 v 6.35 h 44.18541 v 12.7 h -56.88541 v -44.45 h 50.53541 m -75.93541,50.8 v -38.1 c -1.28588,0 -5.22473,-0.65299 -6.07801,0.42413 -1.15755,1.46156 -0.27199,6.46192 -0.27199,8.30712 v 21.16667 c 0,1.74572 -0.82736,6.38995 0.27199,7.77795 0.85328,1.07712 4.79213,0.42413 6.07801,0.42413 m 38.1,19.05 v 12.43542 h -31.75 v -12.43542 c 10.38119,0 21.4458,-1.09987 31.75,0 z"
       id="path119" />
    <path
       id="path274"
       style="fill:#ffffff;stroke-width:2.00809"
       sodipodi:type="inkscape:offset"
       inkscape:radius="0.47897387"
       inkscape:original="M 292.61328 24.798828 C 271.41526 24.700887 242.79987 24.716432 211.88281 24.869141 L 99.464844 25.423828 A 0.68097606 0.68097606 0 0 0 98.798828 25.986328 L 97.373047 34.017578 C 97.252003 34.700263 97.168521 36.135569 97.074219 38.457031 C 96.979917 40.778493 96.888851 43.927831 96.800781 47.8125 C 96.624643 55.581839 96.461732 66.291158 96.322266 79.164062 C 96.043334 104.90987 95.854092 139.31393 95.822266 176.16406 L 95.707031 310.15625 A 0.68097606 0.68097606 0 0 0 96.378906 310.83789 L 132.02148 311.38672 L 167.0293 311.92578 L 167.59766 322.83398 L 168.19922 334.38086 A 0.68097606 0.68097606 0 0 0 168.87891 335.02734 L 214.96484 335.02734 L 261.05078 335.02734 A 0.68097606 0.68097606 0 0 0 261.73242 334.35547 L 261.9707 316.78516 C 262.03587 311.96587 262.23746 306.90445 262.51172 302.64062 C 262.78598 298.3768 263.14218 294.87618 263.47266 293.32031 C 263.77064 291.91741 264.03766 290.8714 264.38477 290.12305 C 264.73187 289.3747 265.12396 288.92114 265.78711 288.54883 C 267.11341 287.80421 269.7181 287.51312 274.65625 287.22852 L 285.1875 286.62109 A 0.68097606 0.68097606 0 0 0 285.83008 285.94141 L 285.83008 275.10742 L 285.83008 264.27344 A 0.68097606 0.68097606 0 0 0 285.1875 263.59375 L 274.65625 262.98633 C 269.7181 262.70172 267.11341 262.41063 265.78711 261.66602 C 265.12396 261.29371 264.73187 260.84015 264.38477 260.0918 C 264.03766 259.34345 263.77064 258.29744 263.47266 256.89453 C 262.8091 253.7705 262.10098 243.51852 261.9707 234.43359 L 261.73242 217.86719 A 0.68097606 0.68097606 0 0 0 261.05273 217.19531 L 252.51953 217.16406 C 248.6921 217.15027 245.93582 217.35745 244.11719 216.64062 C 243.20787 216.28221 242.50221 215.72831 241.87305 214.72852 C 241.24388 213.72872 240.71533 212.2659 240.29688 210.17578 C 238.62302 201.81529 238.75997 183.6174 238.66016 145.2168 C 238.61091 126.26817 238.65572 108.75983 238.76758 95.818359 C 238.82351 89.347626 238.89647 84.018322 238.98242 80.224609 C 239.0254 78.327753 239.07026 76.81385 239.11914 75.738281 C 239.14358 75.200497 239.16843 74.771376 239.19336 74.464844 C 239.21828 74.158312 239.27273 73.91178 239.24414 74.001953 C 239.29492 73.841822 239.49845 73.586311 240.01562 73.320312 C 240.5328 73.054315 241.3214 72.801598 242.34766 72.597656 C 244.40016 72.189773 247.39856 71.96875 251.22461 71.96875 L 262.37695 71.96875 L 262.37695 143.57812 L 262.37695 215.86914 A 0.68097606 0.68097606 0 0 0 263.05859 216.55078 L 298.20117 216.55078 L 333.3418 216.55078 A 0.68097606 0.68097606 0 0 0 334.02344 215.86914 L 334.02344 121.52734 L 334.02344 27.185547 A 0.68097606 0.68097606 0 0 0 333.50195 26.523438 L 328.98438 25.427734 C 328.69783 25.358257 328.37259 25.336287 327.82422 25.300781 C 327.27584 25.265276 326.54915 25.23311 325.64648 25.201172 C 323.84116 25.137295 321.33786 25.078605 318.21094 25.027344 C 311.95708 24.924821 303.21228 24.847798 292.61328 24.798828 z "
       d="m 292.61523,24.320312 c -21.20024,-0.09795 -49.81601,-0.0824 -80.73437,0.07031 L 99.462891,24.945312 a 0.47902176,0.47902176 0 0 0 -0.002,0 c -0.537133,0.0036 -1.039373,0.428077 -1.132813,0.957032 l -1.425781,8.03125 c -0.134583,0.759041 -0.212199,2.178989 -0.306641,4.503906 -0.09451,2.32652 -0.185331,5.476997 -0.273437,9.363281 -0.176213,7.77262 -0.339037,18.483355 -0.478516,31.357422 -0.278957,25.748087 -0.468173,60.154347 -0.5,97.005857 l -0.115234,133.99219 c -6.41e-4,0.60198 0.540775,1.15101 1.142578,1.16016 l 35.642576,0.54882 34.56055,0.53321 0.54492,10.46094 0.60156,11.54687 c 0.0308,0.58601 0.57129,1.09925 1.15821,1.09961 h 46.08593 46.08594 c 0.60259,6.4e-4 1.1521,-0.542 1.16016,-1.14453 l 0.23828,-17.57031 c 0.065,-4.81047 0.26735,-9.86454 0.54101,-14.11914 0.27364,-4.25407 0.6365,-7.7705 0.95118,-9.25196 0.29595,-1.39334 0.56207,-2.41684 0.87695,-3.0957 0.32025,-0.69046 0.6145,-1.02695 1.20312,-1.35742 1.13935,-0.63966 3.73303,-0.97569 8.66211,-1.25977 l 10.53125,-0.60742 c 0.58449,-0.033 1.09357,-0.57279 1.09375,-1.1582 v -10.83399 -10.83398 c -1.7e-4,-0.58542 -0.50926,-1.1252 -1.09375,-1.15821 l -10.53125,-0.60742 c -4.92908,-0.28408 -7.52276,-0.62011 -8.66211,-1.25976 -0.58862,-0.33048 -0.88287,-0.66696 -1.20312,-1.35743 -0.31488,-0.67885 -0.581,-1.70234 -0.87695,-3.0957 -0.31685,-1.49172 -0.66576,-4.84769 -0.94141,-8.92773 -0.27565,-4.08004 -0.48578,-8.9088 -0.55078,-13.44141 l -0.23828,-16.56445 v -0.002 c -0.009,-0.60009 -0.55611,-1.1404 -1.15625,-1.14258 h -0.002 l -8.53125,-0.0312 c -3.84554,-0.0139 -6.59277,0.1545 -8.22851,-0.49024 -0.83134,-0.32767 -1.42803,-0.79201 -2.01367,-1.72265 -0.58141,-0.9239 -1.10202,-2.33445 -1.51368,-4.39063 -1.6466,-8.22437 -1.52713,-26.46505 -1.62695,-64.86719 -0.0492,-18.9471 -0.004,-36.45373 0.10742,-49.392574 0.0559,-6.469406 0.12899,-11.796243 0.21485,-15.585938 0.0429,-1.89508 0.0882,-3.408079 0.13672,-4.476562 0.0243,-0.534619 0.0482,-0.959694 0.0723,-1.25586 0.011,-0.135521 0.0302,-0.263255 0.043,-0.349609 9.7e-4,-0.0066 0.001,-0.0119 0.002,-0.01758 -0.0101,0.037 0.0792,-0.164162 0.51954,-0.390625 0.4508,-0.231857 1.20895,-0.479394 2.20703,-0.677735 1.99747,-0.396948 4.9756,-0.621093 8.7832,-0.621093 h 10.67383 v 71.130854 72.29102 c -6e-4,0.6081 0.55205,1.16075 1.16015,1.16016 h 35.14258 35.14063 c 0.6081,5.9e-4 1.16075,-0.55206 1.16015,-1.16016 v -94.3418 -94.341793 c 6e-5,-0.515429 -0.38587,-1.00544 -0.88672,-1.126953 h -0.002 l -4.51562,-1.095703 c -0.34474,-0.08358 -0.69329,-0.105085 -1.24219,-0.140625 -0.55699,-0.03606 -1.28646,-0.06759 -2.19141,-0.09961 -1.81059,-0.06406 -4.31659,-0.122537 -7.44531,-0.173828 -6.25725,-0.102578 -15.00341,-0.17954 -25.60352,-0.228516 z"
       transform="matrix(0.26458333,0,0,0.26458333,41.843419,87.33474)" />
    <path
       id="path350"
       style="fill:#ffffff;stroke-width:2.00809"
       sodipodi:type="inkscape:offset"
       inkscape:radius="0.74173969"
       inkscape:original="M 335.34961 217.87695 L 335.34961 228.92188 L 335.34961 239.9668 L 311.25391 239.9668 L 287.15625 239.9668 L 287.15625 249.60547 C 287.15625 254.90682 288.24107 260.32896 289.56641 261.6543 C 291.32037 263.40826 306.57668 264.0625 345.62891 264.0625 C 375.13776 264.0625 400.71003 263.51414 402.45703 262.84375 C 405.08446 261.83551 405.63281 257.84583 405.63281 239.75195 L 405.63281 217.87695 L 370.49219 217.87695 L 335.34961 217.87695 z "
       d="m 335.34961,217.13477 a 0.74181386,0.74181386 0 0 0 -0.74219,0.74218 v 11.04493 10.30273 h -23.35351 -24.09766 a 0.74181386,0.74181386 0 0 0 -0.74219,0.74219 v 9.63867 c 0,2.70127 0.27447,5.41969 0.72266,7.66015 0.44819,2.24047 0.95555,3.96532 1.9043,4.91407 0.40118,0.40118 0.91927,0.59395 1.63476,0.79492 0.71549,0.20097 1.63453,0.37446 2.79883,0.53125 2.3286,0.31357 5.63449,0.56005 10.10351,0.75195 8.93806,0.3838 22.52053,0.54688 42.05079,0.54688 14.75902,0 28.5322,-0.13833 38.83984,-0.35938 5.15382,-0.11052 9.44144,-0.24052 12.55664,-0.38672 1.5576,-0.0731 2.82108,-0.14989 3.76172,-0.23047 0.47032,-0.0403 0.85994,-0.0811 1.17187,-0.125 0.31194,-0.0439 0.52111,-0.0729 0.76368,-0.16601 0.80156,-0.30759 1.50835,-0.91057 1.99609,-1.83594 0.48774,-0.92536 0.80804,-2.15776 1.04687,-3.89453 0.47767,-3.47354 0.60938,-9.00025 0.60938,-18.05469 v -21.875 a 0.74181386,0.74181386 0 0 0 -0.74219,-0.74218 h -35.14062 z"
       transform="matrix(0.26458334,0,0,0.26458334,41.843419,87.33474)" />
    <path
       id="path389"
       style="fill:#ffffff;stroke-width:2.00809"
       sodipodi:type="inkscape:offset"
       inkscape:radius="2.7768018"
       inkscape:original="M 359.44727 25.101562 L 359.44727 108.4375 L 359.44727 191.77148 L 465.875 191.77148 L 572.30469 191.77148 L 572.30469 168.67969 L 572.30469 145.58594 L 488.96875 145.58594 L 405.63281 145.58594 L 405.63281 133.53711 L 405.63281 121.48828 L 393.58398 121.48828 L 381.53711 121.48828 L 381.53711 108.4375 L 381.53711 95.384766 L 393.58398 95.384766 L 405.63281 95.384766 L 405.63281 83.335938 L 405.63281 71.287109 L 476.91992 71.287109 L 548.20703 71.287109 L 548.20703 48.193359 L 548.20703 25.101562 L 453.82812 25.101562 L 359.44727 25.101562 z "
       d="m 359.44727,22.324219 a 2.7770795,2.7770795 0 0 0 -2.77735,2.777343 v 83.335938 83.33398 a 2.7770795,2.7770795 0 0 0 2.77735,2.77735 H 465.875 572.30469 a 2.7770795,2.7770795 0 0 0 2.77734,-2.77735 v -23.09179 -23.09375 a 2.7770795,2.7770795 0 0 0 -2.77734,-2.77735 h -83.33594 -80.55859 v -9.27148 -12.04883 a 2.7770795,2.7770795 0 0 0 -2.77735,-2.77734 h -12.04883 -9.26953 V 108.4375 98.162109 h 9.26953 12.04883 a 2.7770795,2.7770795 0 0 0 2.77735,-2.777343 V 83.335938 74.064453 h 68.50976 71.28711 a 2.7770795,2.7770795 0 0 0 2.77735,-2.777344 V 48.193359 25.101562 a 2.7770795,2.7770795 0 0 0 -2.77735,-2.777343 h -94.37891 z"
       transform="matrix(0.26458334,0,0,0.26458334,41.843419,87.33474)" />
    <path
       id="path428"
       style="fill:#ffffff;stroke-width:2.00809"
       sodipodi:type="inkscape:offset"
       inkscape:radius="2.6030786"
       inkscape:original="M 361.08594 287.56055 C 350.34896 287.55833 338.18138 287.65185 327.17578 287.83984 L 287.15625 288.52344 L 287.15625 311.43555 L 287.15625 334.3457 L 346.39453 334.3457 L 405.63281 334.3457 L 405.63281 311.44727 L 405.63281 288.54883 L 386.41602 287.85156 C 381.13102 287.66023 371.82292 287.56276 361.08594 287.56055 z "
       d="m 361.08594,284.95703 c -10.7525,-0.002 -22.93146,0.091 -33.95508,0.2793 l -40.01953,0.68359 a 2.6033389,2.6033389 0 0 0 -2.5586,2.60352 v 22.91211 22.91015 a 2.6033389,2.6033389 0 0 0 2.60352,2.60352 h 59.23828 59.23828 a 2.6033389,2.6033389 0 0 0 2.60352,-2.60352 v -22.89843 -22.89844 a 2.6033389,2.6033389 0 0 0 -2.50977,-2.60156 L 386.50977,285.25 c -5.36349,-0.19417 -14.67141,-0.29076 -25.42383,-0.29297 z"
       transform="matrix(0.26458334,0,0,0.26458334,41.843419,87.33474)" />
  </g>
</svg>
